<mxfile host="app.diagrams.net" modified="2022-09-04T07:54:10.075Z" agent="5.0 (Macintosh; Intel Mac OS X 10_15_7) AppleWebKit/537.36 (KHTML, like Gecko) Chrome/104.0.0.0 Safari/537.36" etag="V1b1V1FQMHjGFJbCIhWC" version="20.2.7" type="github">
  <diagram id="_wijsisbxkV8y_iti-r_" name="Page-1">
    <mxGraphModel dx="728" dy="520" grid="1" gridSize="10" guides="1" tooltips="1" connect="1" arrows="1" fold="1" page="1" pageScale="1" pageWidth="850" pageHeight="1100" math="0" shadow="0">
      <root>
        <mxCell id="0" />
        <mxCell id="1" parent="0" />
        <mxCell id="aYcBqJu0SMqnxRmcelO9-10" style="edgeStyle=orthogonalEdgeStyle;rounded=0;orthogonalLoop=1;jettySize=auto;html=1;exitX=0.5;exitY=1;exitDx=0;exitDy=0;" edge="1" parent="1" source="aYcBqJu0SMqnxRmcelO9-1" target="aYcBqJu0SMqnxRmcelO9-2">
          <mxGeometry relative="1" as="geometry" />
        </mxCell>
        <mxCell id="aYcBqJu0SMqnxRmcelO9-11" style="edgeStyle=orthogonalEdgeStyle;rounded=0;orthogonalLoop=1;jettySize=auto;html=1;exitX=0.5;exitY=1;exitDx=0;exitDy=0;entryX=0.5;entryY=0;entryDx=0;entryDy=0;" edge="1" parent="1" source="aYcBqJu0SMqnxRmcelO9-1" target="aYcBqJu0SMqnxRmcelO9-6">
          <mxGeometry relative="1" as="geometry" />
        </mxCell>
        <mxCell id="aYcBqJu0SMqnxRmcelO9-1" value="Iterator" style="rounded=1;whiteSpace=wrap;html=1;fillColor=#dae8fc;strokeColor=#6c8ebf;" vertex="1" parent="1">
          <mxGeometry x="320" y="50" width="100" height="50" as="geometry" />
        </mxCell>
        <mxCell id="aYcBqJu0SMqnxRmcelO9-12" style="edgeStyle=orthogonalEdgeStyle;rounded=0;orthogonalLoop=1;jettySize=auto;html=1;exitX=0.5;exitY=1;exitDx=0;exitDy=0;entryX=0.5;entryY=0;entryDx=0;entryDy=0;" edge="1" parent="1" source="aYcBqJu0SMqnxRmcelO9-2" target="aYcBqJu0SMqnxRmcelO9-4">
          <mxGeometry relative="1" as="geometry" />
        </mxCell>
        <mxCell id="aYcBqJu0SMqnxRmcelO9-13" style="edgeStyle=orthogonalEdgeStyle;rounded=0;orthogonalLoop=1;jettySize=auto;html=1;exitX=0.5;exitY=1;exitDx=0;exitDy=0;entryX=0.5;entryY=0;entryDx=0;entryDy=0;" edge="1" parent="1" source="aYcBqJu0SMqnxRmcelO9-2" target="aYcBqJu0SMqnxRmcelO9-5">
          <mxGeometry relative="1" as="geometry" />
        </mxCell>
        <mxCell id="aYcBqJu0SMqnxRmcelO9-2" value="ListIterator" style="rounded=1;whiteSpace=wrap;html=1;fillColor=#dae8fc;strokeColor=#6c8ebf;" vertex="1" parent="1">
          <mxGeometry x="140" y="160" width="100" height="50" as="geometry" />
        </mxCell>
        <mxCell id="aYcBqJu0SMqnxRmcelO9-4" value="ArrayList.ListItr" style="rounded=1;whiteSpace=wrap;html=1;fillColor=#f8cecc;strokeColor=#b85450;" vertex="1" parent="1">
          <mxGeometry x="60" y="280" width="100" height="50" as="geometry" />
        </mxCell>
        <mxCell id="aYcBqJu0SMqnxRmcelO9-5" value="LinkedList.ListItr" style="rounded=1;whiteSpace=wrap;html=1;fillColor=#f8cecc;strokeColor=#b85450;" vertex="1" parent="1">
          <mxGeometry x="200" y="280" width="100" height="50" as="geometry" />
        </mxCell>
        <mxCell id="aYcBqJu0SMqnxRmcelO9-14" style="edgeStyle=orthogonalEdgeStyle;rounded=0;orthogonalLoop=1;jettySize=auto;html=1;exitX=0.5;exitY=1;exitDx=0;exitDy=0;entryX=0.5;entryY=0;entryDx=0;entryDy=0;" edge="1" parent="1" source="aYcBqJu0SMqnxRmcelO9-6" target="aYcBqJu0SMqnxRmcelO9-8">
          <mxGeometry relative="1" as="geometry" />
        </mxCell>
        <mxCell id="aYcBqJu0SMqnxRmcelO9-15" style="edgeStyle=orthogonalEdgeStyle;rounded=0;orthogonalLoop=1;jettySize=auto;html=1;exitX=0.5;exitY=1;exitDx=0;exitDy=0;entryX=0.5;entryY=0;entryDx=0;entryDy=0;" edge="1" parent="1" source="aYcBqJu0SMqnxRmcelO9-6" target="aYcBqJu0SMqnxRmcelO9-7">
          <mxGeometry relative="1" as="geometry" />
        </mxCell>
        <mxCell id="aYcBqJu0SMqnxRmcelO9-16" style="edgeStyle=orthogonalEdgeStyle;rounded=0;orthogonalLoop=1;jettySize=auto;html=1;exitX=0.5;exitY=1;exitDx=0;exitDy=0;entryX=0.5;entryY=0;entryDx=0;entryDy=0;" edge="1" parent="1" source="aYcBqJu0SMqnxRmcelO9-6" target="aYcBqJu0SMqnxRmcelO9-9">
          <mxGeometry relative="1" as="geometry" />
        </mxCell>
        <mxCell id="aYcBqJu0SMqnxRmcelO9-6" value="HashMap" style="rounded=1;whiteSpace=wrap;html=1;" vertex="1" parent="1">
          <mxGeometry x="500" y="160" width="100" height="50" as="geometry" />
        </mxCell>
        <mxCell id="aYcBqJu0SMqnxRmcelO9-7" value="EntrySet.&lt;br&gt;EntryIterator" style="rounded=1;whiteSpace=wrap;html=1;fillColor=#f8cecc;strokeColor=#b85450;" vertex="1" parent="1">
          <mxGeometry x="360" y="280" width="100" height="50" as="geometry" />
        </mxCell>
        <mxCell id="aYcBqJu0SMqnxRmcelO9-8" value="Values.&lt;br&gt;ValueIterator" style="rounded=1;whiteSpace=wrap;html=1;fillColor=#f8cecc;strokeColor=#b85450;" vertex="1" parent="1">
          <mxGeometry x="500" y="280" width="100" height="50" as="geometry" />
        </mxCell>
        <mxCell id="aYcBqJu0SMqnxRmcelO9-9" value="KeySet.&lt;br&gt;KeyIterator" style="rounded=1;whiteSpace=wrap;html=1;fillColor=#f8cecc;strokeColor=#b85450;" vertex="1" parent="1">
          <mxGeometry x="640" y="280" width="100" height="50" as="geometry" />
        </mxCell>
        <mxCell id="aYcBqJu0SMqnxRmcelO9-17" value="接口" style="rounded=1;whiteSpace=wrap;html=1;fillColor=#dae8fc;strokeColor=#6c8ebf;" vertex="1" parent="1">
          <mxGeometry x="680" y="50" width="40" height="30" as="geometry" />
        </mxCell>
        <mxCell id="aYcBqJu0SMqnxRmcelO9-18" value="内部类" style="rounded=1;whiteSpace=wrap;html=1;fillColor=#f8cecc;strokeColor=#b85450;" vertex="1" parent="1">
          <mxGeometry x="680" y="90" width="40" height="30" as="geometry" />
        </mxCell>
      </root>
    </mxGraphModel>
  </diagram>
</mxfile>
